<?xml version="1.0" encoding="utf-8"?>
<!-- Generator: Adobe Illustrator 22.0.0, SVG Export Plug-In . SVG Version: 6.00 Build 0)  -->
<svg version="1.1" id="Layer_1" xmlns="http://www.w3.org/2000/svg" xmlns:xlink="http://www.w3.org/1999/xlink" x="0px" y="0px"
	 viewBox="0 0 1000 1000" style="enable-background:new 0 0 1000 1000;" xml:space="preserve">
<style type="text/css">
	.st0{fill:#212121;}
	.st1{fill:#FFFFFF;}
</style>
<g>
	<path class="st0" d="M710.3,46.5C642.2,15,570.7,0,500.3,0C311.7,0,131.1,107.3,46.5,289.7c-116.2,250.5-7.3,547.6,243.1,663.8
		c3.9,1.8,7.7,3.5,11.6,5.2c0.1,0,0.2,0.1,0.3,0.1c3.7,1.6,7.5,3.2,11.3,4.7c0.3,0.1,0.6,0.2,0.8,0.3c3.7,1.5,7.4,2.9,11.1,4.3
		c0.3,0.1,0.7,0.2,1,0.4c3.7,1.4,7.4,2.7,11.1,4c0.3,0.1,0.6,0.2,0.8,0.3c3.8,1.3,7.6,2.6,11.4,3.8c0.1,0,0.2,0.1,0.3,0.1
		c11.8,3.8,23.7,7,35.6,9.9c0.2,0,0.4,0.1,0.6,0.2c3.8,0.9,7.6,1.7,11.4,2.5c0.3,0.1,0.6,0.1,0.9,0.2c3.8,0.8,7.6,1.5,11.3,2.2
		c0.3,0.1,0.6,0.1,0.9,0.2c3.8,0.7,7.7,1.4,11.5,2c0.2,0,0.3,0,0.5,0.1c11.9,1.9,23.9,3.3,35.8,4.3c0.2,0,0.4,0,0.7,0.1
		c3.8,0.3,7.6,0.6,11.4,0.8c0.4,0,0.7,0,1,0.1c3.7,0.2,7.5,0.4,11.2,0.5c0.4,0,0.7,0,1.1,0c3.8,0.1,7.5,0.2,11.3,0.2
		c0.3,0,0.5,0,0.8,0c1.4,0,2.9,0,4.3,0c2.1,0,4.1,0,6.2-0.1c0.5,0,1,0,1.5,0c3.8-0.1,7.5-0.2,11.2-0.3c0.6,0,1.2-0.1,1.8-0.1
		c3.1-0.1,6.3-0.3,9.4-0.5c0.8-0.1,1.7-0.1,2.5-0.2c3.6-0.2,7.3-0.5,10.9-0.8c0,0,0,0,0,0c3.7-0.3,7.4-0.7,11.1-1.1
		c0.8-0.1,1.6-0.2,2.4-0.3c3-0.4,6-0.7,8.9-1.1c0.8-0.1,1.6-0.2,2.4-0.3c3.7-0.5,7.3-1,11-1.6c0.2,0,0.3-0.1,0.5-0.1
		c3.4-0.5,6.8-1.2,10.2-1.8c0.9-0.2,1.8-0.3,2.6-0.5c3-0.6,6-1.2,9-1.8c0.6-0.1,1.2-0.2,1.8-0.4c3.6-0.8,7.1-1.6,10.7-2.4
		c0.6-0.1,1.3-0.3,1.9-0.5c2.9-0.7,5.9-1.4,8.8-2.2c0.9-0.2,1.8-0.5,2.7-0.7c3.3-0.9,6.5-1.8,9.8-2.7c0.2-0.1,0.5-0.1,0.7-0.2
		c3.5-1,7-2.1,10.4-3.1c0.8-0.3,1.7-0.5,2.5-0.8c2.7-0.9,5.4-1.8,8.1-2.7c0.9-0.3,1.7-0.6,2.6-0.9c3.4-1.2,6.8-2.4,10.2-3.6
		c0.3-0.1,0.5-0.2,0.8-0.3c3.1-1.2,6.2-2.3,9.3-3.6c0.9-0.4,1.8-0.7,2.8-1.1c2.7-1.1,5.4-2.2,8-3.3c0.7-0.3,1.5-0.6,2.2-0.9
		c3.3-1.4,6.6-2.8,9.8-4.3c0.7-0.3,1.4-0.6,2.1-0.9c2.6-1.2,5.3-2.4,7.9-3.7c0.9-0.4,1.9-0.9,2.8-1.3c2.8-1.4,5.7-2.8,8.5-4.2
		c0.4-0.2,0.8-0.4,1.2-0.6c3.2-1.6,6.3-3.3,9.5-5c0.8-0.5,1.7-0.9,2.5-1.4c2.4-1.3,4.8-2.7,7.2-4c0.9-0.5,1.8-1,2.6-1.5
		c3.1-1.8,6.2-3.6,9.3-5.4c0.3-0.2,0.5-0.3,0.8-0.5c2.8-1.7,5.6-3.4,8.4-5.2c0.9-0.6,1.8-1.1,2.7-1.7c2.4-1.5,4.7-3.1,7-4.6
		c0.7-0.5,1.5-1,2.2-1.5c3-2,5.9-4,8.8-6.1c0.6-0.4,1.3-0.9,1.9-1.4c2.3-1.7,4.7-3.3,7-5.1c0.9-0.6,1.7-1.3,2.6-1.9
		c2.4-1.8,4.9-3.7,7.3-5.6c0.5-0.4,0.9-0.7,1.4-1c2.8-2.2,5.6-4.5,8.4-6.7c0.8-0.6,1.5-1.2,2.3-1.9c2.1-1.8,4.2-3.5,6.3-5.3
		c0.8-0.7,1.6-1.3,2.3-2c2.7-2.4,5.4-4.8,8.1-7.2c0.2-0.2,0.3-0.3,0.5-0.5c2.5-2.3,5-4.6,7.5-6.9c0.8-0.7,1.5-1.5,2.3-2.2
		c2.1-2,4.1-3.9,6.1-5.9c0.6-0.6,1.3-1.3,1.9-1.9c2.6-2.6,5.1-5.2,7.6-7.8c0.5-0.5,1-1.1,1.5-1.6c2-2.2,4.1-4.4,6.1-6.5
		c0.7-0.8,1.4-1.6,2.2-2.4c2.1-2.3,4.1-4.6,6.2-7c0.4-0.5,0.8-0.9,1.2-1.4c2.4-2.8,4.8-5.6,7.1-8.4c0.6-0.7,1.2-1.5,1.8-2.2
		c1.8-2.2,3.6-4.5,5.4-6.7c0.6-0.8,1.3-1.6,1.9-2.4c2.3-2.9,4.5-5.9,6.8-8.9c0,0,0.1-0.1,0.1-0.2c2.2-2.9,4.3-5.9,6.4-8.9
		c0.6-0.9,1.2-1.7,1.8-2.6c1.7-2.4,3.3-4.8,5-7.3c0.5-0.8,1-1.5,1.5-2.3c2.1-3.1,4.1-6.3,6.1-9.5c0.4-0.6,0.7-1.2,1.1-1.7
		c1.7-2.7,3.3-5.4,4.9-8.1c0.6-0.9,1.1-1.9,1.6-2.8c1.6-2.8,3.2-5.5,4.8-8.3c0.3-0.6,0.6-1.1,0.9-1.6c1.9-3.3,3.7-6.7,5.5-10
		c0.4-0.8,0.9-1.7,1.3-2.5c1.4-2.7,2.8-5.3,4.1-8c0.5-1,1-1.9,1.4-2.9c1.7-3.5,3.4-6.9,5-10.5c7.3-15.6,13.6-31.5,19.2-47.5
		C1055.5,423.4,945.1,155.4,710.3,46.5z M615.6,250.8c-4.5-1.5-9.8-4.9-13.8-9c-5.5-5.7-9.7-12.7-14.3-19.2
		c-4.3-6.1-7.7-12.8-12.4-18.6c-17.6-21.9-40.5-25.1-63.7-9.3c-15.9,10.8-27.5,25.6-36.8,42c-2.8,4.9-5.4,9.9-7.8,15
		c-2.3,5.1-4.4,10.3-6.4,15.7c-6.5,17.8-10.3,36.1-8.3,55.3c3,28,20.1,43.3,48.2,42.7c7.4-0.2,14.8-1.9,22.2-2.6
		c7.9-0.7,16-2,23.9-1.5c5.5,0.4,11.6,2.5,15.7,4.8L438,633.7c3.9,2.9,9.2,4.6,15.6,5c7.9,0.6,16-0.7,23.9-1.5
		c7.4-0.7,14.8-2.4,22.2-2.6c28.1-0.7,45.3,14.7,48.2,42.7c2,19.1-1.8,37.5-8.3,55.3c-1.9,5.3-4,10.6-6.4,15.7
		c-2.4,5.1-5,10.1-7.9,15c-9.4,16.4-20.9,31.2-36.8,42c-23.3,15.8-46.1,12.6-63.7-9.3c-4.7-5.8-8.1-12.5-12.4-18.6
		c-4.6-6.5-8.8-13.5-14.3-19.2c-4.5-4.6-9.2-7.6-13.9-8.7l-63.1,136.1c-26-12.1-50.5-26.5-73.2-43.2c-22.7-16.7-43.7-35.6-62.8-56.7
		c-36.9-40.7-65.3-87.7-84.3-139.6c-19-51.9-27.7-106-25.8-161c1.9-56.8,15.2-112,39.3-164.2c34.8-75,90-137.7,159.7-181.3
		c68-42.6,146.3-65.1,226.3-65.1h0c61.8,0,121.9,13.3,178.6,39.6L615.6,250.8z"/>
	<path class="st1" d="M678.9,114.3l-63.3,136.5c-4.5-1.5-9.8-4.9-13.8-9c-5.5-5.7-9.7-12.7-14.3-19.2c-4.3-6.1-7.7-12.8-12.4-18.6
		c-17.6-21.9-40.5-25.1-63.7-9.3c-15.9,10.8-27.5,25.6-36.8,42c-2.8,4.9-5.4,9.9-7.8,15c-2.3,5.1-4.4,10.3-6.4,15.7
		c-6.5,17.8-10.3,36.1-8.3,55.3c3,28,20.1,43.3,48.2,42.7c7.4-0.2,14.8-1.9,22.2-2.6c7.9-0.7,16-2,23.9-1.5
		c5.5,0.4,11.6,2.5,15.7,4.8L438,633.7c3.9,2.9,9.2,4.6,15.6,5c7.9,0.6,16-0.7,23.9-1.5c7.4-0.7,14.8-2.4,22.2-2.6
		c28.1-0.7,45.3,14.7,48.2,42.7c2,19.1-1.8,37.5-8.3,55.3c-1.9,5.3-4,10.6-6.4,15.7c-2.4,5.1-5,10.1-7.9,15
		c-9.4,16.4-20.9,31.2-36.8,42c-23.3,15.8-46.1,12.6-63.7-9.3c-4.7-5.8-8.1-12.5-12.4-18.6c-4.6-6.5-8.8-13.5-14.3-19.2
		c-4.5-4.6-9.2-7.6-13.9-8.7l-63.1,136.1c-26-12.1-50.5-26.5-73.2-43.2c-22.7-16.7-43.7-35.6-62.8-56.7
		c-36.9-40.7-65.3-87.7-84.3-139.6c-19-51.9-27.7-106-25.8-161c1.9-56.8,15.2-112,39.3-164.2c34.8-75,90-137.7,159.7-181.3
		c68-42.6,146.3-65.1,226.3-65.1h0C562.2,74.7,622.3,88,678.9,114.3z"/>
</g>
</svg>
